<?xml version="1.0" encoding="utf-8"?>
<!-- Generator: Adobe Illustrator 25.2.1, SVG Export Plug-In . SVG Version: 6.00 Build 0)  -->
<svg version="1.1" id="Layer_1" xmlns="http://www.w3.org/2000/svg" xmlns:xlink="http://www.w3.org/1999/xlink" x="0px" y="0px"
	 viewBox="0 0 480 64.6" style="enable-background:new 0 0 480 64.6;" xml:space="preserve">
<style type="text/css">
	.st0{fill:#FFFFFF;}
</style>
<g>
	<polygon class="st0" points="189,37.9 181.3,18.8 173.6,37.9 167.3,20 164.4,20 173.6,45.1 181.3,25.9 189,45.1 198.2,20 195.3,20 
			"/>
	<path class="st0" d="M45.5,2.7v50.9h10.7c5.3-5.9,8.6-13.6,8.6-21.3C64.7,19.1,56.8,7.7,45.5,2.7z"/>
	<path class="st0" d="M30,37V0c-1,0.1-2,0.2-3,0.4V37c0,1.7,0.5,3.4,1.5,4.9C29.5,40.5,30,38.9,30,37z"/>
	<path class="st0" d="M20.9,37V2c-1,0.4-2.1,0.8-3,1.3V37c0,1.7,0.5,3.4,1.5,4.9C20.4,40.5,20.9,38.9,20.9,37z"/>
	<polygon class="st0" points="133.2,43.9 145.6,43.9 145.6,41.4 135.8,41.4 135.8,32 145.3,32 145.3,29.6 135.8,29.6 135.8,22.5 
		145.6,22.5 145.6,20 133.2,20 	"/>
	<path class="st0" d="M39.4,0.7c-1.1-0.2-2.2-0.4-3.3-0.5V37c0,4.8-1.2,8.2-7.6,13.2c-2.8-2.2-3.5-2.7-4.6-4.2
		c-0.8,1.1-2.3,2.5-4.6,4.2c-5.4-4.3-7.6-7.8-7.6-13.2V7.3C4.6,13.2,0,22.2,0,32.3c0,17.9,14.5,32.4,32.4,32.4
		c6.1,0,11.8-1.9,16.6-4.9h-9.6V0.7z"/>
	<polygon class="st0" points="87,22.5 92.8,22.5 92.8,43.9 95.5,43.9 95.5,22.5 101.3,22.5 101.3,20 87,20 	"/>
	<polygon class="st0" points="122.3,29.7 110.1,29.7 110.1,20 107.4,20 107.4,43.9 110.1,43.9 110.1,32.2 122.3,32.2 122.3,43.9 
		125,43.9 125,20 122.3,20 	"/>
	<path class="st0" d="M224.3,23.2c-1.1-1.1-2.4-2-4-2.7c-1.5-0.6-3.1-1-4.8-1c-1.7,0-3.3,0.3-4.8,1c-1.5,0.6-2.8,1.5-4,2.7
		c-1.1,1.1-2,2.4-2.7,3.9c-0.7,1.5-1,3.1-1,4.8c0,1.7,0.3,3.3,1,4.8c0.7,1.5,1.5,2.8,2.7,3.9c1.1,1.1,2.4,2,4,2.6
		c1.5,0.6,3.1,1,4.8,1c1.7,0,3.3-0.3,4.8-1c1.5-0.6,2.8-1.5,4-2.6c1.1-1.1,2-2.4,2.7-3.9c0.7-1.5,1-3.1,1-4.8c0-1.7-0.3-3.3-1-4.8
		C226.3,25.7,225.4,24.3,224.3,23.2z M224.5,35.7c-0.5,1.2-1.2,2.2-2.1,3.1c-0.9,0.9-1.9,1.6-3.1,2.1c-1.2,0.5-2.5,0.8-3.8,0.8
		c-1.4,0-2.6-0.3-3.8-0.8c-1.2-0.5-2.2-1.2-3.1-2.1c-0.9-0.9-1.6-1.9-2.1-3.1c-0.5-1.2-0.8-2.5-0.8-3.8c0-1.4,0.3-2.6,0.8-3.8
		c0.5-1.2,1.2-2.3,2.1-3.2c0.9-0.9,1.9-1.6,3.1-2.1c1.2-0.5,2.5-0.8,3.8-0.8c1.4,0,2.7,0.3,3.8,0.8c1.2,0.5,2.2,1.2,3.1,2.1
		c0.9,0.9,1.6,1.9,2.1,3.2c0.5,1.2,0.8,2.5,0.8,3.8C225.3,33.3,225,34.6,224.5,35.7z"/>
	<path class="st0" d="M425.6,34.3h7.1c0,1.1-0.2,2.1-0.7,3c-0.5,0.9-1.2,1.7-2,2.4c-0.8,0.7-1.7,1.2-2.7,1.5c-1,0.4-2,0.5-3.1,0.5
		c-1.3,0-2.5-0.3-3.7-0.9c-1.2-0.6-2.2-1.3-3.1-2.2c-0.9-0.9-1.6-1.9-2.1-3.1c-0.5-1.2-0.7-2.4-0.7-3.6c0-1.4,0.3-2.6,0.8-3.8
		c0.5-1.2,1.2-2.3,2.1-3.2c0.9-0.9,1.9-1.6,3.1-2.2c1.2-0.5,2.5-0.8,3.8-0.8c1.8,0,3.3,0.4,4.7,1.2c1.3,0.8,2.5,1.9,3.5,3.3l1.9-1.8
		c-1.3-1.6-2.7-2.9-4.4-3.8c-1.7-0.9-3.6-1.3-5.7-1.3c-1.7,0-3.3,0.3-4.8,1s-2.8,1.5-4,2.7c-1.1,1.1-2,2.4-2.7,3.9
		c-0.7,1.5-1,3.1-1,4.8c0,1.7,0.3,3.3,1,4.8c0.7,1.5,1.5,2.8,2.6,3.9c1.1,1.1,2.4,2,3.9,2.6c1.5,0.7,3.1,1,4.8,1
		c1.7,0,3.3-0.3,4.8-1c1.6-0.7,2.9-1.7,4-2.9c0.5-0.6,1-1.3,1.3-1.9s0.6-1.3,0.8-2c0.2-0.7,0.3-1.4,0.3-2.2c0.1-0.7,0.1-1.5,0-2.3
		h-9.9V34.3z"/>
	<polygon class="st0" points="367.8,43.9 380.2,43.9 380.2,41.4 370.4,41.4 370.4,32 379.9,32 379.9,29.6 370.4,29.6 370.4,22.5 
		380.2,22.5 380.2,20 367.8,20 	"/>
	<path class="st0" d="M385.8,43.9h2.9l2.9-6.8h10.2l2.8,6.8h2.9l-10.7-25L385.8,43.9z M392.6,34.6l4.1-9.6l4,9.6H392.6z"/>
	<path class="st0" d="M245.4,31.1c1.1-1.2,1.6-2.7,1.6-4.6c0-1.4-0.2-2.5-0.7-3.3c-0.5-0.9-1.1-1.5-1.9-2c-0.8-0.5-1.7-0.8-2.8-1
		c-1-0.2-2.1-0.3-3.3-0.3h-3.5v23.9h2.7V33.4h0.7l7.2,10.5h3.3L241,33.2C242.9,33,244.4,32.3,245.4,31.1z M238.3,31h-0.8v-8.6h0.8
		c0.8,0,1.6,0,2.3,0.1c0.7,0.1,1.4,0.3,1.9,0.6c0.6,0.3,1,0.7,1.3,1.3c0.3,0.6,0.5,1.4,0.5,2.3c0,0.9-0.2,1.7-0.5,2.2
		c-0.3,0.6-0.8,1-1.4,1.3c-0.6,0.3-1.2,0.5-1.9,0.6C239.8,31,239.1,31,238.3,31z"/>
	<polygon class="st0" points="480,22.5 480,20 467.6,20 467.6,43.9 480,43.9 480,41.4 470.3,41.4 470.3,32 479.7,32 479.7,29.6 
		470.3,29.6 470.3,22.5 	"/>
	<path class="st0" d="M457,34.2c0,0.5,0,0.9,0,1.4s0,1-0.1,1.4c-0.1,0.5-0.2,0.9-0.3,1.4c-0.2,0.4-0.4,0.9-0.7,1.2
		c-0.5,0.7-1.3,1.2-2.1,1.6c-0.9,0.4-1.7,0.6-2.6,0.6c-0.9,0-1.8-0.2-2.7-0.6c-0.9-0.4-1.6-1-2.1-1.7c-0.3-0.4-0.5-0.8-0.6-1.2
		c-0.1-0.4-0.3-0.9-0.3-1.3c-0.1-0.5-0.1-0.9-0.1-1.4s0-0.9,0-1.4V20h-2.7v14.9c0,0.7,0,1.3,0.1,1.9c0.1,0.6,0.2,1.2,0.3,1.8
		s0.4,1.1,0.7,1.6c0.3,0.5,0.7,1,1.3,1.5c0.8,0.8,1.7,1.4,2.8,1.8c1.1,0.4,2.2,0.6,3.3,0.6c1.2,0,2.4-0.2,3.5-0.7
		c1.1-0.5,2.1-1.1,2.9-2c0.5-0.5,0.8-1,1.1-1.5c0.3-0.5,0.5-1,0.6-1.6c0.1-0.5,0.2-1.1,0.3-1.7c0-0.6,0.1-1.2,0.1-1.9V20H457V34.2z"
		/>
	<polygon class="st0" points="277.9,43.9 290.3,43.9 290.3,41.4 280.6,41.4 280.6,32 290,32 290,29.6 280.6,29.6 280.6,22.5 
		290.3,22.5 290.3,20 277.9,20 	"/>
	<polygon class="st0" points="271.7,20 268.1,20 258,30.2 258,20 255.3,20 255.3,43.9 258,43.9 258,33.6 258.6,32.9 268.4,43.9 
		272.1,43.9 260.5,31.1 	"/>
	<path class="st0" d="M308.7,31.1c1.1-1.2,1.6-2.7,1.6-4.6c0-1.4-0.2-2.5-0.7-3.3c-0.5-0.9-1.1-1.5-1.9-2c-0.8-0.5-1.7-0.8-2.8-1
		c-1-0.2-2.1-0.3-3.3-0.3h-3.5v23.9h2.7V33.4h0.7l7.2,10.5h3.3l-7.6-10.7C306.2,33,307.6,32.3,308.7,31.1z M301.6,31h-0.8v-8.6h0.8
		c0.8,0,1.6,0,2.3,0.1c0.7,0.1,1.4,0.3,1.9,0.6c0.6,0.3,1,0.7,1.3,1.3c0.3,0.6,0.5,1.4,0.5,2.3c0,0.9-0.2,1.7-0.5,2.2
		c-0.3,0.6-0.8,1-1.4,1.3c-0.6,0.3-1.2,0.5-1.9,0.6C303.1,31,302.4,31,301.6,31z"/>
	<polygon class="st0" points="355.3,20 352.6,20 352.6,43.9 361.9,43.9 361.9,41.4 355.3,41.4 	"/>
	<path class="st0" d="M330.7,32.6c-0.5-0.5-1.1-1-1.8-1.4c-0.7-0.4-1.4-0.8-2.2-1.1l-1.6-0.7c-0.4-0.2-0.8-0.4-1.3-0.6
		c-0.4-0.2-0.8-0.5-1.2-0.8c-0.4-0.3-0.7-0.6-0.9-1c-0.2-0.4-0.4-0.8-0.4-1.3c0-0.5,0.1-1,0.3-1.5c0.2-0.5,0.5-0.8,0.9-1.2
		c0.4-0.3,0.8-0.6,1.3-0.8s1-0.3,1.5-0.3c1,0,1.8,0.2,2.5,0.7c0.6,0.5,1.2,1.1,1.7,1.9l2.1-1.4c-0.6-1.2-1.5-2.1-2.6-2.7
		c-1.1-0.6-2.3-1-3.6-1c-0.9,0-1.7,0.1-2.5,0.4c-0.8,0.3-1.5,0.7-2.1,1.2c-0.6,0.5-1.1,1.2-1.5,1.9c-0.4,0.7-0.5,1.6-0.5,2.5
		c0,0.9,0.1,1.6,0.4,2.2c0.3,0.6,0.6,1.2,1.1,1.6c0.5,0.5,1,0.9,1.7,1.2c0.6,0.4,1.3,0.7,2,1l1.5,0.6c0.5,0.3,1.1,0.5,1.6,0.8
		c0.5,0.3,1,0.6,1.4,0.9c0.4,0.4,0.7,0.8,1,1.3c0.3,0.5,0.4,1.1,0.4,1.8c0,0.7-0.1,1.3-0.4,1.9c-0.3,0.6-0.6,1.1-1.1,1.5
		c-0.5,0.4-1,0.7-1.6,1c-0.6,0.2-1.2,0.3-1.8,0.3c-0.6,0-1.2-0.1-1.8-0.3c-0.5-0.2-1-0.5-1.4-0.9c-0.4-0.4-0.8-0.9-1-1.4
		c-0.3-0.5-0.5-1.1-0.5-1.7l-2.6,0.7c0.2,0.9,0.5,1.8,1,2.5c0.4,0.8,1,1.4,1.6,1.9c0.6,0.5,1.4,1,2.2,1.3c0.8,0.3,1.7,0.4,2.7,0.4
		c1,0,2-0.2,2.9-0.6c0.9-0.4,1.7-0.9,2.4-1.6c0.7-0.7,1.2-1.4,1.6-2.3c0.4-0.9,0.6-1.9,0.6-2.9c0-0.9-0.2-1.8-0.5-2.5
		C331.6,33.8,331.2,33.2,330.7,32.6z"/>
</g>
<g>
</g>
<g>
</g>
<g>
</g>
<g>
</g>
<g>
</g>
<g>
</g>
</svg>
