<?xml version="1.0" encoding="UTF-8"?><svg id="Camada_1" xmlns="http://www.w3.org/2000/svg" viewBox="0 0 32 16"><defs><style>.cls-1{fill:#f8f8ff;}</style></defs><path class="cls-1" d="m1.33,16c-.38,0-.69-.13-.95-.38C.13,15.36,0,15.04,0,14.67v-.77C0,12.92.49,12.14,1.47,11.55s2.27-.88,3.87-.88c.29,0,.56.01.82.03.26.02.51.06.75.1-.31.44-.54.92-.68,1.43s-.22,1.06-.22,1.63v2.13H1.33Zm8,0c-.38,0-.69-.13-.95-.38-.26-.26-.38-.57-.38-.95v-.8c0-1.44.74-2.62,2.22-3.52,1.48-.9,3.41-1.35,5.78-1.35,2.4,0,4.33.45,5.8,1.35,1.47.9,2.2,2.07,2.2,3.52v.8c0,.38-.13.69-.38.95-.26.26-.57.38-.95.38h-13.33Zm16.67,0v-2.13c0-.58-.08-1.12-.23-1.63s-.38-.99-.67-1.43c.24-.04.49-.08.75-.1.26-.02.53-.03.82-.03,1.6,0,2.89.29,3.87.88.98.59,1.47,1.37,1.47,2.35v.77c0,.38-.13.69-.38.95-.26.26-.57.38-.95.38h-4.67ZM5.33,9.33c-.73,0-1.36-.26-1.88-.78-.52-.52-.78-1.15-.78-1.88,0-.73.26-1.36.78-1.88.52-.52,1.15-.78,1.88-.78.73,0,1.36.26,1.88.78s.78,1.15.78,1.88c0,.73-.26,1.36-.78,1.88-.52.52-1.15.78-1.88.78Zm21.33,0c-.73,0-1.36-.26-1.88-.78-.52-.52-.78-1.15-.78-1.88,0-.73.26-1.36.78-1.88.52-.52,1.15-.78,1.88-.78.73,0,1.36.26,1.88.78.52.52.78,1.15.78,1.88,0,.73-.26,1.36-.78,1.88-.52.52-1.15.78-1.88.78Zm-10.67-1.33c-1.11,0-2.06-.39-2.83-1.17s-1.17-1.72-1.17-2.83.39-2.06,1.17-2.83,1.72-1.17,2.83-1.17,2.06.39,2.83,1.17,1.17,1.72,1.17,2.83-.39,2.06-1.17,2.83-1.72,1.17-2.83,1.17Z"/></svg>