<?xml version="1.0" encoding="UTF-8"?><svg id="Camada_1" xmlns="http://www.w3.org/2000/svg" viewBox="0 0 26.67 24"><defs><style>.cls-1{fill:#0974bc;}</style></defs><path class="cls-1" d="m13.47,24c-.38,0-.69-.13-.95-.38-.26-.26-.38-.57-.38-.95,0-.16.03-.32.1-.48.07-.17.17-.32.3-.45l6.17-6.17-.97-.97-6.13,6.17c-.13.13-.28.23-.43.3s-.32.1-.5.1c-.38,0-.69-.13-.95-.38s-.38-.57-.38-.95c0-.22.03-.41.1-.55.07-.14.16-.27.27-.38l6.17-6.17-.93-.93-6.17,6.13c-.13.13-.28.23-.43.3-.16.07-.33.1-.53.1-.36,0-.67-.13-.93-.4-.27-.27-.4-.58-.4-.93,0-.18.03-.34.1-.5.07-.16.17-.3.3-.43l6.17-6.17-.97-.93-6.13,6.17c-.11.11-.24.2-.4.27s-.34.1-.57.1c-.38,0-.69-.13-.95-.38-.26-.26-.38-.57-.38-.95,0-.18.03-.34.1-.5.07-.16.17-.3.3-.43l7.43-7.43,5,5.03c.24.24.53.44.87.58s.67.22,1,.22c.71,0,1.33-.25,1.87-.75.53-.5.8-1.14.8-1.92,0-.31-.06-.63-.17-.97s-.31-.64-.6-.93L14.27,1.1c.38-.36.8-.63,1.27-.82C16,.09,16.47,0,16.93,0,17.51,0,18.04.09,18.53.28c.49.19.93.48,1.33.88l5.63,5.67c.4.4.69.84.88,1.33.19.49.28,1.06.28,1.7,0,.44-.1.89-.3,1.35-.2.46-.49.87-.87,1.25l-11.1,11.13c-.18.18-.33.29-.47.33s-.29.07-.47.07ZM2.03,13.33l-.87-.87c-.38-.36-.67-.78-.87-1.27S0,10.2,0,9.67c0-.58.11-1.11.33-1.6s.5-.9.83-1.23L6.8,1.17c.36-.36.78-.64,1.27-.85C8.56.1,9.03,0,9.5,0,10.1,0,10.63.08,11.1.25c.47.17.92.47,1.37.92l6.83,6.83c.13.13.23.28.3.43s.1.32.1.5c0,.36-.13.67-.4.93s-.58.4-.93.4c-.2,0-.37-.03-.5-.08-.13-.06-.28-.16-.43-.32l-6-5.93S2.03,13.33,2.03,13.33Z"/></svg>