<?xml version="1.0" encoding="UTF-8"?><svg id="Camada_1" xmlns="http://www.w3.org/2000/svg" viewBox="0 0 26.72 26.67"><defs><style>.cls-1{fill:#0974bc;}</style></defs><path class="cls-1" d="m21.33,9.33l-1.07.93c-.31.29-.68.43-1.1.43s-.79-.12-1.1-.37c-.31-.24-.52-.56-.63-.93-.11-.38-.1-.78.03-1.2l.53-1.67-1.13-.67c-.36-.2-.61-.49-.75-.87-.14-.38-.16-.76-.05-1.13.11-.38.33-.67.67-.88s.71-.32,1.13-.32h1.33l.4-1.27c.13-.42.36-.76.68-1.02C20.61.13,20.96,0,21.33,0,21.71,0,22.06.13,22.38.38s.55.59.68,1.02l.4,1.27h1.33c.42,0,.79.11,1.12.32.32.21.55.51.68.88.16.4.16.79,0,1.17-.16.38-.4.66-.73.83l-1.2.67.53,1.67c.13.42.14.83.03,1.22-.11.39-.32.69-.63.92-.33.24-.71.37-1.12.37s-.77-.14-1.08-.43l-1.07-.93Zm0-2.67c.38,0,.69-.13.95-.38.26-.26.38-.57.38-.95,0-.38-.13-.69-.38-.95-.26-.26-.57-.38-.95-.38-.38,0-.69.13-.95.38-.26.26-.38.57-.38.95,0,.38.13.69.38.95.26.26.57.38.95.38Zm-5.6,14.53c.51,1.33.34,2.58-.5,3.73-.84,1.16-2.03,1.73-3.57,1.73-.73,0-1.43-.19-2.08-.57-.66-.38-1.14-.88-1.45-1.5-1.84.27-3.37-.21-4.58-1.42s-1.71-2.76-1.48-4.65c-.67-.38-1.18-.89-1.53-1.55S0,15.58,0,14.73c0-1.36.62-2.45,1.85-3.28,1.23-.83,2.44-1.01,3.62-.52l2.07.87c.44-.69,1.03-1.25,1.77-1.68.73-.43,1.52-.67,2.37-.72v-2.73h2v3c.82.24,1.5.63,2.03,1.15s.99,1.25,1.37,2.18h2.93v2h-2.73c-.04.84-.27,1.63-.68,2.37s-.96,1.32-1.65,1.77l.8,2.07Zm-10.73-4.67c.71,0,1.34-.09,1.88-.27s1.25-.53,2.12-1.07l-4-1.67c-.64-.27-1.19-.26-1.65.02-.46.28-.68.72-.68,1.32,0,.58.19,1,.57,1.27.38.27.97.4,1.77.4Zm6.67,7.47c.56,0,1.01-.19,1.35-.58.34-.39.43-.79.25-1.22l-1.8-4.53c-.42.71-.75,1.42-.98,2.13-.23.71-.35,1.36-.35,1.93,0,.73.13,1.29.38,1.68s.64.58,1.15.58Zm2.2-7.4c.22-.22.4-.52.53-.88s.2-.75.2-1.15c0-.71-.23-1.31-.7-1.8s-1.04-.73-1.73-.73c-.4,0-.78.07-1.13.2-.36.13-.66.32-.9.57l2.6,1.2s1.13,2.6,1.13,2.6Z"/></svg>