<?xml version="1.0" encoding="UTF-8"?><svg id="Modo_de_isolamento" xmlns="http://www.w3.org/2000/svg" viewBox="0 0 9.33 16"><defs><style>.cls-1{fill:#f8f8ff;}</style></defs><path class="cls-1" d="m9.33,13.33v-5.33c0-.73-.6-1.33-1.33-1.33H2.67v-2.67h5.33c.73,0,1.33-.6,1.33-1.33s-.6-1.33-1.33-1.33h-2c0-.73-.6-1.33-1.33-1.33s-1.33.6-1.33,1.33H1.33c-.73,0-1.33.6-1.33,1.33v5.33c0,.73.6,1.33,1.33,1.33h5.33v2.67H1.33c-.73,0-1.33.6-1.33,1.33s.6,1.33,1.33,1.33h2c0,.73.6,1.33,1.33,1.33s1.33-.6,1.33-1.33h2c.73,0,1.33-.6,1.33-1.33Z"/></svg>