<?xml version="1.0" encoding="UTF-8"?><svg id="Camada_1" xmlns="http://www.w3.org/2000/svg" viewBox="0 0 24.95 26.15"><path fill="#0974bc" d="m24.88,16.55l-1.34-3.17c-.08-.2-.08-.42,0-.62l1.34-3.17c.16-.37.02-.79-.32-1l-2.95-1.77c-.19-.11-.32-.3-.37-.51l-.78-3.35c-.09-.39-.45-.65-.85-.62l-3.43.3c-.22.02-.43-.05-.59-.19L13,.2c-.3-.26-.75-.26-1.05,0l-2.6,2.26c-.16.14-.38.21-.59.19l-3.43-.3c-.4-.03-.76.23-.85.62l-.78,3.35c-.05.21-.18.39-.37.51l-2.95,1.77c-.34.21-.48.63-.32,1l1.34,3.17c.08.2.08.42,0,.62L.06,16.55c-.16.37-.02.79.32,1l2.95,1.77c.19.11.32.3.37.51l.78,3.35c.09.39.45.65.85.62l3.43-.3c.22-.02.43.05.59.19l2.6,2.26c.3.26.75.26,1.05,0l2.6-2.26c.16-.14.38-.21.59-.19l3.43.3c.4.03.76-.23.85-.62l.78-3.35c.05-.21.18-.39.37-.51l2.95-1.77c.34-.21.48-.63.32-1Zm-6.37-5.44l-6.67,6.67c-.19.19-.44.29-.71.29s-.52-.11-.71-.29l-2.67-2.67c-.39-.39-.39-1.02,0-1.41s1.02-.39,1.41,0l1.96,1.96,5.96-5.96c.39-.39,1.02-.39,1.41,0s.39,1.02,0,1.41Z"/></svg>