<?xml version="1.0" encoding="UTF-8"?><svg id="Camada_1" xmlns="http://www.w3.org/2000/svg" viewBox="0 0 21.33 21.33"><defs></defs><path style="stroke-width:0px; fill:#bfbfd8;" d="m10.67,10.67c-1.47,0-2.72-.52-3.77-1.57-1.04-1.04-1.57-2.3-1.57-3.77s.52-2.72,1.57-3.77C7.94.52,9.2,0,10.67,0c1.47,0,2.72.52,3.77,1.57,1.04,1.04,1.57,2.3,1.57,3.77s-.52,2.72-1.57,3.77c-1.04,1.04-2.3,1.57-3.77,1.57ZM0,21.33v-3.73c0-.76.19-1.45.58-2.08.39-.63.91-1.12,1.55-1.45,1.38-.69,2.78-1.21,4.2-1.55,1.42-.34,2.87-.52,4.33-.52,1.47,0,2.91.17,4.33.52,1.42.34,2.82.86,4.2,1.55.64.33,1.16.82,1.55,1.45s.58,1.33.58,2.08v3.73H0Z"/></svg>