<?xml version="1.0" encoding="UTF-8"?><svg id="Modo_de_isolamento" xmlns="http://www.w3.org/2000/svg" viewBox="0 0 10.15 17.66"><defs><style>.cls-1{fill:#94c5dd;}</style></defs><path class="cls-1" d="m4.21,9.16c.72-1.29,2.09-2.05,2.89-3.2.85-1.2.37-3.44-2.03-3.44-1.57,0-2.34,1.19-2.67,2.18L0,3.68C.66,1.7,2.45,0,5.07,0c2.18,0,3.68.99,4.44,2.24.65,1.07,1.03,3.07.03,4.56-1.12,1.65-2.18,2.15-2.76,3.21-.23.43-.33.71-.33,2.08h-2.69c0-.73-.12-1.91.45-2.93Zm2.72,6.65c0,1.02-.84,1.86-1.86,1.86s-1.86-.84-1.86-1.86.84-1.86,1.86-1.86,1.86.84,1.86,1.86Z"/></svg>