<?xml version="1.0" encoding="UTF-8"?><svg id="Camada_1" xmlns="http://www.w3.org/2000/svg" viewBox="0 0 20 18"><defs><style>.cls-1{fill:#ffe3dc;}</style></defs><path class="cls-1" d="m18,18c1.1,0,2-.9,2-2v-4.88c0-1.1-.9-2-2-2h-2.78c0-.7.04-1.41.12-2.11.12-.74.33-1.41.62-1.98.29-.58.66-1.03,1.12-1.37.45-.37,1.03-.56,1.74-.56V0c-1.16,0-2.17.25-3.04.74-.86.49-1.6,1.17-2.17,1.98-.57.9-.99,1.88-1.24,2.92-.26,1.14-.38,2.3-.37,3.47v6.88c0,1.1.9,2,2,2h4Zm-12,0c1.1,0,2-.9,2-2v-4.88c0-1.1-.9-2-2-2h-2.78c0-.7.04-1.41.12-2.11.12-.74.33-1.41.62-1.98.29-.58.66-1.03,1.12-1.37.45-.37,1.03-.56,1.74-.56V0c-1.16,0-2.17.25-3.04.74-.86.49-1.6,1.17-2.17,1.98-.57.9-.99,1.88-1.24,2.92C.12,6.78,0,7.95,0,9.12v6.88C0,17.1.9,18,2,18h4Z"/></svg>