<?xml version="1.0" encoding="UTF-8"?><svg id="Modo_de_isolamento" xmlns="http://www.w3.org/2000/svg" viewBox="0 0 27.56 36.74"><defs><style>.cls-1{fill:#f8f8ff;}</style></defs><path class="cls-1" d="m15.29,14.34c.25-.76,1.32-.76,1.58,0l1.48,4.45c.66,1.98,2.22,3.54,4.2,4.2l4.45,1.48c.76.25.76,1.32,0,1.58l-4.45,1.48c-1.98.66-3.54,2.22-4.2,4.2l-1.48,4.45c-.14.43-.61.67-1.05.53-.25-.08-.45-.28-.53-.53l-1.48-4.45c-.66-1.98-2.22-3.54-4.2-4.2l-4.45-1.48c-.43-.14-.67-.61-.53-1.05.08-.25.28-.45.53-.53l4.45-1.48c1.98-.66,3.54-2.22,4.2-4.2l1.48-4.45ZM6.42,2.63c.09-.26.37-.4.63-.32.15.05.27.17.32.32l.89,2.67c.4,1.19,1.33,2.12,2.52,2.52l2.67.89c.26.09.4.37.32.63-.05.15-.17.27-.32.32l-2.67.89c-1.19.4-2.12,1.33-2.52,2.52l-.89,2.67c-.09.26-.37.4-.63.32-.15-.05-.27-.17-.32-.32l-.89-2.67c-.4-1.19-1.33-2.12-2.52-2.52l-2.67-.89c-.26-.09-.4-.37-.32-.63.05-.15.17-.27.32-.32l2.67-.89c1.19-.4,2.12-1.33,2.52-2.52l.89-2.67ZM22.65.22c.06-.17.25-.27.42-.21.1.03.17.11.21.21l.59,1.78c.26.79.89,1.42,1.68,1.68l1.78.59c.17.06.27.25.21.42-.03.1-.11.17-.21.21l-1.78.59c-.79.26-1.42.89-1.68,1.68l-.59,1.78c-.06.17-.25.27-.42.21-.1-.03-.17-.11-.21-.21l-.59-1.78c-.26-.79-.89-1.42-1.68-1.68l-1.77-.59c-.17-.06-.27-.25-.21-.42.03-.1.11-.17.21-.21l1.78-.59c.79-.26,1.42-.89,1.68-1.68l.59-1.77h0Z"/></svg>