<?xml version="1.0" encoding="UTF-8"?><svg id="Camada_1" xmlns="http://www.w3.org/2000/svg" viewBox="0 0 32 32"><defs><style>.cls-1{fill:#f8f8ff;fill-rule:evenodd;}</style></defs><path class="cls-1" d="m8.96,14.54c.52.52,2.56,2.66,2.56,2.66l1.12-1.16-1.76-1.82,3.38-3.6s-1.52-1.48-.86-.9c.64-2.38.06-5.02-1.74-6.88-1.8-1.84-4.34-2.44-6.62-1.82l3.86,4-1.02,3.92-3.78,1.04L.24,5.98c-.62,2.36-.04,4.98,1.76,6.82,1.88,1.96,4.58,2.52,6.96,1.74Zm12.88,3.88l-4.66,4.6,7.68,7.96c.62.66,1.46.98,2.28.98s1.64-.32,2.28-.98c1.26-1.3,1.26-3.4,0-4.7,0,0-7.58-7.86-7.58-7.86Zm10.16-13.36L27.1,0l-14.44,14.92,1.76,1.82-8.62,8.92-1.98,1.06-2.78,4.54.7.74,4.4-2.88,1.02-2.04,8.64-8.92,1.76,1.82,14.44-14.92Z"/></svg>