<?xml version="1.0" encoding="UTF-8"?><svg id="Camada_2" xmlns="http://www.w3.org/2000/svg" xmlns:xlink="http://www.w3.org/1999/xlink" viewBox="0 0 1363.3 533.3"><defs><style>.cls-1{fill:#fff;}.cls-2{fill:url(#Gradiente_sem_nome_14);}.cls-3{fill:#2ea3f2;}.cls-4{fill:url(#Gradiente_sem_nome_7);}.cls-5{fill:url(#Gradiente_sem_nome_10);}.cls-6,.cls-7,.cls-8{fill:none;}.cls-7{clip-path:url(#clippath);}.cls-8{clip-path:url(#clippath-1);}</style><linearGradient id="Gradiente_sem_nome_10" x1="286.64" y1="379.48" x2="17.28" y2="143.56" gradientUnits="userSpaceOnUse"><stop offset=".23" stop-color="#6ec5e7"/><stop offset=".39" stop-color="#8bd0eb"/><stop offset=".73" stop-color="#c3e5f3"/><stop offset=".89" stop-color="#d9eef7"/></linearGradient><clipPath id="clippath"><path class="cls-6" d="m469.97,228.84h0C432.84,74.55,493.79,0,493.79,0c0,0-153.99,29.38-274,49.68-13.68,1.05-26.9,3.53-40.21,6.61h0c-5.94,1.05-11.2,2.48-15.03,4.21C80.23,88.15,14.77,162.03,2.14,255.74c-17.51,130.54,74.18,250.86,204.71,268.37,130.54,17.51,250.86-74.18,268.37-204.71,4.21-31.11,2.1-61.55-5.26-90.63v.08Z"/></clipPath><linearGradient id="Gradiente_sem_nome_7" x1="290.82" y1="419.84" x2="858.37" y2="-108.32" gradientUnits="userSpaceOnUse"><stop offset="0" stop-color="#4492d7"/><stop offset=".17" stop-color="#54a5da"/><stop offset=".41" stop-color="#6bd"/><stop offset=".57" stop-color="#6dc3df"/></linearGradient><clipPath id="clippath-1"><path class="cls-6" d="m469.97,228.84h0C432.84,74.55,493.79,0,493.79,0c0,0-153.99,29.38-274,49.68-13.68,1.05-26.9,3.53-40.21,6.61h0c-5.94,1.05-11.2,2.48-15.03,4.21C80.23,88.15,14.77,162.03,2.14,255.74c-17.51,130.54,74.18,250.86,204.71,268.37,130.54,17.51,250.86-74.18,268.37-204.71,4.21-31.11,2.1-61.55-5.26-90.63v.08Z"/></clipPath><radialGradient id="Gradiente_sem_nome_14" cx="365.86" cy="128.89" fx="489.25" fy="-82.94" r="245.14" gradientUnits="userSpaceOnUse"><stop offset=".28" stop-color="#0065ff"/><stop offset=".33" stop-color="#086aff"/><stop offset=".41" stop-color="#1f78ff"/><stop offset=".51" stop-color="#458eff"/><stop offset=".62" stop-color="#7aaeff"/><stop offset=".75" stop-color="#bcd6ff"/><stop offset=".87" stop-color="#fff"/></radialGradient></defs><g id="Camada_1-2"><g id="Camada_1-2"><path class="cls-1" d="m635.83,272.2c0,4.88-1.05,10.15-3.53,16.08-2.48,5.56-6.31,11.57-11.57,16.76-5.26,5.56-11.87,10.15-19.92,13.68-8.04,3.53-17.51,5.26-28.33,5.26-8.04,0-15.78-.68-22.4-2.48-6.61-1.8-12.93-3.83-18.19-7.36-5.56-3.16-10.52-7.67-15.03-12.93-4.21-4.88-7.67-10.52-10.52-16.46-2.86-5.94-4.88-12.63-6.61-19.24-1.43-6.99-2.1-13.98-2.1-21.72,0-12.63,1.73-23.82,5.56-33.59,3.53-9.77,8.72-18.19,15.78-25.55,6.61-6.99,14.73-12.25,23.82-16.08,9.09-3.53,18.86-5.56,29.01-5.56,12.63,0,23.82,2.48,33.59,7.36,9.77,4.88,17.51,11.2,22.77,18.56s7.67,14.35,7.67,20.97c0,3.53-1.43,6.61-3.83,9.47-2.48,2.78-5.56,4.21-9.09,4.21-4.21,0-6.99-1.05-9.09-2.78s-4.21-5.26-6.61-9.77c-4.21-7.67-8.72-13.3-14.35-17.13-5.56-3.83-12.25-5.56-20.67-5.56-12.93,0-23.07,4.88-30.81,14.73s-11.57,23.82-11.57,42.01c0,12.25,1.73,22.02,5.26,30.06,3.53,8.04,8.04,13.98,14.35,17.81,6.31,3.83,13.68,5.94,21.72,5.94,9.09,0,16.76-2.1,23.07-6.61,6.31-4.58,10.82-11.2,13.98-19.61,1.43-4.21,3.16-7.36,4.88-10.15,2.1-2.48,5.26-3.83,9.47-3.83,3.83,0,6.99,1.43,9.77,3.83,2.1,2.48,3.53,5.94,3.53,9.77v-.08Z"/><path class="cls-1" d="m662.05,306.17v-125.28c0-5.94,1.43-10.15,3.83-13.3,2.48-2.78,5.94-4.58,10.52-4.58s8.04,1.43,10.52,4.58c2.78,2.78,4.21,7.36,4.21,13.3v125.58c0,5.94-1.43,10.15-4.21,13.3-2.78,2.78-6.31,4.58-10.52,4.58s-7.67-1.43-10.52-4.58c-2.48-3.53-3.83-7.67-3.83-13.68v.08Z"/><path class="cls-1" d="m801.69,272.2h-56.66c0,6.61,1.43,12.25,3.83,17.51,2.48,4.88,5.94,8.72,10.15,11.2s9.09,3.83,13.98,3.83c3.53,0,6.61-.38,9.47-1.05,2.78-.68,5.56-2.1,8.42-3.83,2.78-1.73,5.26-3.53,7.36-5.56s5.26-4.58,8.72-8.04c1.43-1.43,3.53-1.73,6.31-1.73s5.26.68,7.36,2.48c1.73,1.73,2.78,3.83,2.78,6.99,0,2.48-1.05,5.56-3.16,9.09-2.1,3.53-5.26,6.99-9.09,10.15-4.21,3.16-9.47,5.94-15.78,8.04-6.31,2.1-13.3,3.16-21.72,3.16-18.56,0-32.92-5.26-43.36-15.78-10.45-10.52-15.41-24.88-15.41-43.06,0-8.42,1.43-16.46,3.83-23.82,2.48-7.36,6.31-13.68,11.2-18.86s10.82-9.09,17.81-11.87c6.99-2.78,15.03-4.21,23.82-4.21,11.2,0,20.97,2.48,29.01,6.99,8.04,4.58,13.98,10.82,18.19,18.56,4.21,7.74,5.94,15.41,5.94,23.07s-2.1,11.87-6.31,13.98-9.47,2.78-16.76,2.78h.07Zm-56.66-16.46h52.46c-.68-9.77-3.53-17.13-8.04-22.02s-10.82-7.36-18.19-7.36-13.3,2.48-17.81,7.36c-4.58,4.88-7.36,12.25-8.42,22.02Z"/><path class="cls-1" d="m922.76,307.52c-6.99,5.56-13.68,9.47-20.29,12.25-6.61,2.78-13.98,4.21-22.02,4.21-7.36,0-13.98-1.43-19.61-4.58-5.56-2.78-9.77-6.99-12.93-11.87s-4.58-10.52-4.58-16.46c0-8.04,2.48-14.73,7.36-20.29s11.87-9.47,20.67-11.2c1.73-.38,6.31-1.43,13.68-2.78,7.36-1.43,13.68-2.78,18.56-4.21,5.26-1.43,10.82-2.78,16.76-4.58-.38-7.67-1.73-13.3-4.58-16.76s-8.42-5.26-16.76-5.26c-7.36,0-12.93,1.05-16.46,3.16-3.83,2.1-6.99,5.26-9.47,9.09-2.78,4.21-4.58,6.61-5.56,8.04s-3.53,2.1-6.99,2.1c-3.16,0-5.94-1.05-8.42-3.16s-3.53-4.88-3.53-8.04c0-5.26,1.73-10.15,5.26-14.73,3.53-4.88,9.09-8.72,16.76-11.87s17.13-4.58,28.33-4.58c12.63,0,22.77,1.43,30.06,4.58,7.29,3.16,12.25,7.67,15.41,14.35s4.58,15.03,4.58,25.93v32.92c0,5.56,1.05,11.2,2.78,17.13,1.73,5.94,2.78,9.77,2.78,11.57,0,2.78-1.43,5.56-4.21,8.04-2.78,2.48-5.94,3.53-9.47,3.53-2.78,0-5.94-1.43-8.72-4.21-2.78-2.78-5.94-6.99-9.47-12.25l.08-.08Zm-1.73-42.01c-4.21,1.43-10.52,3.16-18.56,4.88-8.04,1.73-13.68,3.16-16.76,3.83-3.16.68-5.94,2.48-8.72,4.88s-4.21,5.56-4.21,9.77c0,4.58,1.73,8.04,4.88,11.2,3.16,3.16,7.67,4.58,12.93,4.58,5.56,0,10.82-1.43,15.78-3.83s8.42-5.56,10.52-9.77c2.48-4.58,3.83-11.57,3.83-21.72v-3.83h.38-.08Z"/><path class="cls-1" d="m1004.97,222.15v3.53c5.26-6.61,10.52-11.57,16.76-14.73,5.94-3.16,12.93-4.58,20.97-4.58s14.35,1.73,20.29,4.88c5.94,3.16,10.52,8.04,13.3,13.98,1.73,3.53,3.16,7.36,3.83,11.57.68,4.21.68,9.47.68,15.78v53.88c0,5.94-1.43,10.15-3.83,13.3-2.78,2.78-5.94,4.58-10.52,4.58-4.21,0-7.67-1.43-10.52-4.58-2.86-3.16-4.21-7.36-4.21-12.93v-48.62c0-9.47-1.43-16.76-3.83-22.02-2.78-4.88-8.04-7.67-15.78-7.67-5.26,0-9.77,1.43-13.98,4.58s-7.36,7.36-9.47,12.63c-1.43,4.21-2.1,12.25-2.1,24.12v36.37c0,5.94-1.43,10.15-4.21,13.3-2.78,2.78-6.31,4.58-10.52,4.58s-7.67-1.43-10.15-4.58c-2.78-3.16-4.21-7.36-4.21-12.93v-83.94c0-5.56,1.05-9.77,3.53-12.25,2.48-2.78,5.56-4.21,9.77-4.21,2.48,0,4.88.68,6.99,1.73s3.83,3.16,4.88,5.26c1.43,2.78,2.1,5.56,2.1,9.09l.23-.15Z"/><path class="cls-1" d="m540.68,359.38l60.5,91.69v-92.36c0-5.94,1.43-10.52,3.83-13.68,2.48-3.16,5.94-4.58,10.52-4.58s8.04,1.43,10.82,4.58c2.48,3.16,3.83,7.36,3.83,13.68v122.12c0,13.68-5.56,20.29-16.76,20.29-2.78,0-5.26-.38-7.67-1.05-2.1-.68-4.58-2.1-6.31-3.83-2.1-1.73-3.83-3.83-5.56-6.31s-3.53-4.88-5.26-7.36l-59.14-90.63v91.01c0,5.94-1.43,10.52-4.21,13.3-2.78,3.16-6.31,4.58-10.52,4.58-4.58,0-8.04-1.43-10.82-4.58-2.78-3.16-4.21-7.67-4.21-13.3v-119.64c0-5.26.68-9.09,1.73-11.87,1.43-3.16,3.53-5.94,6.61-7.67,3.16-2.1,6.31-3.16,10.15-3.16,2.78,0,5.26.38,7.36,1.43s3.83,2.1,5.26,3.83c1.43,1.43,3.16,3.53,4.58,5.94,2.1,2.48,3.53,4.88,5.26,7.67v-.08Z"/><path class="cls-1" d="m743.29,449.64h-56.66c0,6.61,1.43,12.25,3.83,17.51,2.48,4.88,5.94,8.72,10.15,11.2s9.09,3.83,13.98,3.83c3.53,0,6.61-.38,9.47-1.05s5.56-2.1,8.42-3.83c2.78-1.73,5.26-3.53,7.36-5.56s5.26-4.58,8.72-8.04c1.43-1.43,3.53-1.73,6.31-1.73s5.26.68,7.36,2.48c1.73,1.73,2.78,3.83,2.78,6.99,0,2.48-1.05,5.56-3.16,9.09s-5.26,6.99-9.09,10.15c-4.21,3.16-9.47,5.94-15.78,8.04-6.31,2.1-13.3,3.16-21.72,3.16-18.56,0-32.92-5.26-43.36-15.78-10.45-10.52-15.41-24.88-15.41-43.06,0-8.42,1.43-16.46,3.83-23.82,2.48-7.36,6.31-13.68,11.2-18.86,4.88-5.19,10.82-9.09,17.81-11.87,6.99-2.78,15.03-4.21,23.82-4.21,11.2,0,20.97,2.48,29.01,6.99,8.04,4.88,13.98,10.82,18.19,18.56,4.21,7.67,5.94,15.41,5.94,23.07s-2.1,11.87-6.31,13.98c-3.16,1.43-9.09,2.78-16.76,2.78h.07Zm-56.36-16.46h52.46c-.68-9.77-3.53-17.13-8.04-22.02s-10.82-7.36-18.19-7.36-13.3,2.48-17.81,7.36c-4.88,4.88-7.67,12.25-8.42,22.02Z"/><path class="cls-1" d="m793.27,385.91h3.16v-17.51c0-4.58,0-8.42.38-10.82.38-2.78,1.05-4.88,2.1-6.99s2.78-3.53,4.88-4.88c2.1-1.43,4.58-1.73,6.99-1.73,3.53,0,6.99,1.43,9.77,4.21,2.1,1.73,3.16,4.21,3.83,6.61.68,2.78.68,6.31.68,11.2v19.61h10.52c4.21,0,7.36,1.05,9.47,2.78,2.1,2.1,3.16,4.58,3.16,7.36,0,3.83-1.43,6.61-4.58,8.04s-7.36,2.48-13.3,2.48h-5.26v53.21c0,4.58,0,8.04.38,10.52s1.05,4.58,2.48,5.94,3.53,2.48,6.61,2.48c1.73,0,3.83-.38,6.99-1.05,2.78-.68,5.26-1.05,6.61-1.05,2.48,0,4.58,1.05,6.31,2.78s2.78,4.21,2.78,6.99c0,4.58-2.48,8.42-7.67,10.82-5.26,2.48-12.25,3.83-22.02,3.83-9.09,0-15.78-1.43-20.67-4.58-4.58-3.16-7.67-7.36-9.09-12.63-1.43-5.26-2.1-12.63-2.1-21.34v-55.61h-3.83c-4.21,0-7.36-1.05-9.47-2.78-2.1-2.1-3.16-4.58-3.16-7.36,0-3.16,1.05-5.56,3.53-7.36s5.94-3.16,10.52-3.16h0Z"/><path class="cls-1" d="m886.38,401.69l18.86,64.71,17.13-60.2c1.73-6.31,3.16-10.52,4.21-12.93,1.05-2.48,2.48-4.58,4.88-6.61,2.48-2.1,5.94-3.16,10.15-3.16s7.67,1.05,10.15,3.16,4.21,4.21,5.26,6.61c1.05,2.48,2.48,6.61,4.21,12.63l17.13,60.2,19.24-64.71c1.43-4.58,2.48-8.04,3.16-10.15s2.1-3.83,3.83-5.56,4.58-2.48,8.04-2.48,6.31,1.05,9.09,3.53c2.48,2.48,3.83,5.26,3.83,8.42,0,2.78-1.05,7.36-3.16,13.3l-23.82,69.29c-2.1,5.94-3.53,10.15-4.88,12.63-1.05,2.48-2.78,4.88-5.26,6.99s-5.94,3.16-10.15,3.16c-4.58,0-7.67-1.05-10.52-3.16-2.48-2.1-4.21-4.88-5.56-8.04-1.05-3.16-2.48-7.36-3.83-12.25l-16.46-56.36-16.08,56.36c-2.1,7.67-4.58,13.68-6.99,17.81-2.48,3.83-6.61,5.94-12.93,5.94-3.16,0-5.94-.68-8.04-1.73-2.1-1.43-4.21-3.16-5.56-5.26-1.43-2.48-2.78-4.88-3.83-8.04s-2.1-5.56-2.78-7.36l-23.45-69.29c-2.48-6.61-3.53-10.82-3.53-13.3,0-3.16,1.43-5.94,3.83-8.42,2.48-2.48,5.56-3.83,9.09-3.83,4.88,0,8.04,1.43,9.77,4.21,1.05,2.78,3.16,7.36,4.88,13.98l.08-.08Z"/><path class="cls-1" d="m1150.17,442.27c0,8.72-1.43,16.46-4.21,23.82s-6.61,13.68-11.57,18.86c-5.26,5.26-11.2,9.09-18.19,11.87-6.99,2.78-15.03,4.21-23.82,4.21s-16.76-1.43-23.82-4.21c-7.06-2.78-12.93-6.99-18.19-12.25-5.26-5.26-9.09-11.57-11.57-18.56-2.78-6.99-3.83-15.03-3.83-23.82s1.43-16.76,4.21-24.12,6.61-13.68,11.57-18.56,11.2-9.09,18.19-11.87,15.03-4.21,23.82-4.21,16.76,1.43,23.82,4.21c6.99,2.78,13.3,6.99,18.19,12.25,5.26,5.26,9.09,11.57,11.57,18.56,2.48,6.99,3.83,15.03,3.83,23.82Zm-29.01,0c0-11.87-2.48-20.97-7.67-27.66-5.19-6.69-12.25-9.77-20.97-9.77-5.56,0-10.52,1.43-15.03,4.58-4.21,2.78-7.67,7.36-9.77,12.93-2.1,5.56-3.53,12.25-3.53,19.92s1.05,13.98,3.53,19.92c2.48,5.94,5.56,10.15,9.77,12.93,4.21,3.16,9.47,4.58,15.03,4.58,8.72,0,15.78-3.16,20.97-9.77,5.26-6.61,7.67-15.78,7.67-27.66Z"/><path class="cls-1" d="m1201.65,459.41v24.12c0,5.94-1.43,10.15-4.21,13.3-2.78,2.78-6.31,4.58-10.52,4.58s-7.67-1.43-10.15-4.58c-2.78-2.78-4.21-7.36-4.21-13.3v-80.49c0-12.93,4.58-19.61,13.98-19.61,4.88,0,8.42,1.43,10.52,4.58s3.16,7.36,3.53,13.3c3.53-5.94,6.99-10.52,10.52-13.3,3.53-2.78,8.42-4.58,14.73-4.58s11.87,1.43,17.81,4.58c5.56,3.16,8.72,6.99,8.72,12.25,0,3.53-1.05,6.31-3.53,8.72s-4.88,3.53-8.04,3.53c-1.05,0-3.53-.68-7.67-2.1s-7.67-2.1-10.82-2.1c-4.21,0-7.67,1.05-10.52,3.53-2.78,2.1-4.88,5.56-6.31,9.77-1.43,4.58-2.48,9.47-3.16,15.78-.38,5.94-.68,13.3-.68,22.02Z"/><path class="cls-1" d="m1334.59,487.74l-25.55-42.01-15.78,14.73v23.07c0,5.56-1.43,9.77-4.58,12.93s-6.31,4.58-10.15,4.58c-4.58,0-8.04-1.43-10.52-4.58-2.48-2.78-3.83-7.36-3.83-13.3v-122.8c0-6.31,1.43-11.2,3.83-14.73s5.94-4.88,10.52-4.88,8.04,1.43,10.52,4.58c2.48,3.16,3.83,7.36,3.83,13.3v69.97l32.54-34.27c4.21-4.21,6.99-6.99,9.09-8.72,2.1-1.43,4.58-2.48,7.67-2.48,3.53,0,6.61,1.05,9.09,3.53s3.53,5.26,3.53,8.72c0,4.21-3.83,9.77-11.87,16.76l-15.41,13.98,29.76,46.52c2.1,3.53,3.83,5.94,4.58,8.04.75,2.1,1.43,3.53,1.43,5.26,0,4.58-1.43,8.04-3.83,10.82-2.4,2.78-5.94,3.83-9.77,3.83-3.53,0-6.31-1.05-8.04-2.78-1.05-1.43-3.53-4.88-6.99-10.15l-.08.08Z"/><path class="cls-1" d="m707.22,47.57h-26.23v86.42c0,4.88-1.05,8.72-3.53,11.2-2.1,2.48-5.26,3.53-8.72,3.53s-6.61-1.05-8.72-3.53c-2.1-2.48-3.53-5.94-3.53-11.2V47.57h-26.23c-4.21,0-6.99-1.05-9.09-2.78s-3.16-4.21-3.16-7.36,1.05-5.56,3.16-7.36c2.1-1.73,5.26-2.78,9.09-2.78h76.66c4.21,0,7.36,1.05,9.47,2.78,2.1,1.73,3.16,4.21,3.16,7.36s-1.05,5.26-3.16,7.36-4.88,2.78-9.09,2.78h-.08Z"/><path class="cls-1" d="m752.01,39.15v32.92c2.78-3.16,5.56-5.94,8.42-7.67s5.56-3.16,8.72-4.21c3.16-1.05,6.61-1.43,10.52-1.43,5.56,0,10.52,1.05,15.03,3.53,4.21,2.48,7.67,5.94,10.15,10.52,1.43,2.78,2.48,5.56,3.16,8.72.68,3.16.68,6.99.68,11.2v42.31c0,4.58-1.05,7.67-3.16,10.15s-4.58,3.53-8.04,3.53c-7.36,0-10.82-4.58-10.82-13.3v-37.8c0-6.99-1.05-12.63-3.16-16.46-2.1-3.83-5.94-5.56-11.87-5.56-3.83,0-7.36,1.05-10.52,3.53s-5.56,5.26-6.99,9.09c-1.05,3.16-1.73,9.09-1.73,17.51v29.38c0,4.58-1.05,7.67-2.78,10.15-2.1,2.48-4.58,3.53-8.42,3.53-7.36,0-10.82-4.58-10.82-13.3V39.15c0-4.58,1.05-7.67,2.78-10.15,1.73-2.1,4.58-3.53,8.04-3.53s6.31,1.05,8.42,3.53c2.1,2.48,2.48,5.56,2.48,10.15h-.08Z"/><path class="cls-1" d="m892.32,109.2h-43.36c0,4.88,1.05,9.47,3.16,13.3,2.1,3.83,4.58,6.61,7.67,8.72s6.99,2.78,10.82,2.78c2.78,0,4.88-.38,7.36-1.05,2.1-.68,4.21-1.73,6.31-2.78,2.1-1.43,3.83-2.78,5.56-4.21s3.83-3.53,6.61-6.31c1.05-1.05,2.78-1.43,4.88-1.43s4.21.68,5.56,1.73c1.43,1.43,2.1,3.16,2.1,5.26s-.68,4.21-2.48,6.99c-1.43,2.78-3.83,5.26-6.99,7.67s-6.99,4.58-11.87,6.31-10.15,2.48-16.46,2.48c-14.35,0-25.18-4.21-33.22-12.25-8.04-8.04-11.87-19.24-11.87-32.92,0-6.61,1.05-12.63,2.78-18.19s4.88-10.52,8.42-14.35c3.83-3.83,8.42-6.99,13.68-9.09s11.57-3.16,18.19-3.16c8.72,0,16.08,1.73,22.4,5.56,6.31,3.53,10.82,8.42,13.98,13.98,3.16,5.94,4.58,11.57,4.58,17.81,0,5.56-1.73,9.09-4.88,10.82-2.78,1.05-6.99,2.1-12.93,2.1v.23Zm-43.36-12.63h40.21c-.68-7.67-2.48-13.3-5.94-17.13s-8.04-5.56-13.98-5.56c-5.56,0-10.15,1.73-13.68,5.56-3.53,3.83-5.56,9.47-6.61,17.13Z"/><path class="cls-3" d="m469.97,228.84h0C432.84,74.55,493.79,0,493.79,0c0,0-153.99,29.38-274,49.68-13.68,1.05-26.9,3.53-40.21,6.61h0c-5.94,1.05-11.2,2.48-15.03,4.21C80.23,88.15,14.77,162.03,2.14,255.74c-17.51,130.54,74.18,250.86,204.71,268.37,130.54,17.51,250.86-74.18,268.37-204.71,4.21-31.11,2.1-61.55-5.26-90.63v.08Z"/><path class="cls-5" d="m198.13,80.5S41.53,112.24,30.47,273.62c-8.48,118.13,105.26,237.42,237.08,216.53,0,0-121.84-84.35-130.97-195.05-8.62-104.49,35.41-173.28,61.54-214.59Z"/><g class="cls-7"><path class="cls-4" d="m518.87-176.65l24.41,855.69s-224.39-143.85-312.1-205.25c-87.71-61.4-129.82-187.71-89.47-296.47C182.05,68.56,250.47,5.4,250.47,5.4l-24.56-19.3,292.96-162.76Z"/></g><path class="cls-1" d="m107.13,176.68c91.69,66.13,183,131.59,274.98,197.73-4.88,5.56-9.77,11.2-14.73,16.76-3.16,3.53-6.31,2.1-9.47-.38-22.4-16.08-44.79-32.17-67.19-48.32-64.41-46.22-128.74-92.36-193.14-138.88-6.99-4.88-6.99-5.94-1.73-12.25,3.53-4.88,7.36-9.77,11.2-14.73l.08.08Z"/><path class="cls-1" d="m393.69,359.68c-1.73,2.1-3.83,4.21-5.26,5.94-91.31-65.76-182.32-131.59-273.63-196.97,1.43-1.73,3.16-4.21,4.88-5.94,91.01,65.08,182.32,130.84,274,196.97Z"/><path class="cls-1" d="m99.47,217.64c-5.56,6.99-11.57,14.35-17.51,22.02.38.38,1.05,1.05,1.43,1.73,19.61,21.34,32.54,45.47,38.48,72.75,9.77,45.84-.38,87.1-29.38,124.23-15.03,19.24-30.81,38.1-46.22,57.04-2.1,2.78-3.53,6.31-3.83,9.47-.38,6.31,3.83,11.2,10.15,13.3,5.94,2.1,12.25,0,16.76-5.26,15.41-18.56,30.44-37.43,45.84-55.99,35.02-41.26,80.79-61.93,137.53-60.5,23.45.68,45.84,5.94,66.81,15.41,1.43.68,4.58,1.05,5.26.38,5.94-6.61,11.57-13.68,17.13-20.29-81.16-58.09-161.65-116.19-242.44-174.28Zm209.6,168.64c-1.43.68-3.83.68-5.26.38-2.1-.68-3.83-2.48-5.56-3.53-60.2-43.36-120.39-86.8-180.52-130.54-1.05-.68-2.78-1.43-3.16-2.48-.38-1.73-1.05-4.58,0-5.56,1.05-1.05,3.83-1.43,5.56-1.05,1.43,0,2.48,1.43,3.83,2.48,60.87,43.74,121.75,87.85,182.62,131.59,1.73,1.43,3.53,3.16,5.26,4.88-1.05,1.43-1.43,3.53-2.78,3.83Z"/><path class="cls-1" d="m440.58,33.22s-5.56,10.82,2.48,33.59c0,0-16.76-5.94-32.54.68,0,0,4.88-15.78-2.78-33.59,0,0,13.68,5.94,32.92-.68h-.08Z"/><path class="cls-1" d="m439.91,130.16s-3.53,6.31,1.43,20.29c0,0-10.15-3.53-19.61.38,0,0,3.16-9.47-1.73-20.29,0,0,8.04,3.53,19.92-.38Z"/><path class="cls-1" d="m316.73,45.84s-3.53,6.31,1.43,20.29c0,0-10.15-3.53-19.61.38,0,0,3.16-9.47-1.73-20.29,0,.38,8.04,3.83,19.92-.38Z"/><path class="cls-1" d="m248.49,433.85s2.48,6.31,14.73,10.82c0,0-8.42,4.88-11.2,13.68,0,0-4.58-7.67-15.03-10.82.38.38,7.36-3.16,11.57-13.68h-.08Z"/><path class="cls-1" d="m70.76,311.05s2.48,6.31,14.73,10.82c0,0-8.42,4.88-11.2,13.68,0,0-4.58-7.67-15.03-10.82,0,.38,7.36-3.16,11.57-13.68h-.08Z"/><g class="cls-8"><path class="cls-2" d="m119.68,162.7L341-101.9l271.03,177.24-218.35,284.34L119.68,162.7Z"/></g><path class="cls-1" d="m173.94,177.06s47.57-64.03,111.6-103.94c0,0-70.34,53.21-111.6,103.94Z"/><path class="cls-1" d="m271.94,185.78s47.57-64.03,111.6-103.94c0,0-70.34,52.83-111.6,103.94Z"/><path class="cls-1" d="m293.28,272.2s47.57-64.03,111.6-103.94c0,0-70.34,52.83-111.6,103.94Z"/></g></g></svg>